<svg width="458" height="153" viewBox="0 0 458 153" xmlns="http://www.w3.org/2000/svg"><title>r4000</title><g fill="#1a1a1a" fill-rule="evenodd"><path d="M275.69 83.39c2.49-35.61-11.42-53.36-31.918-54.793-20.5-1.434-36.743 14.208-39.233 49.817-2.77 39.6 11.19 56.61 31.69 58.044 20.498 1.433 36.69-13.47 39.46-53.068zm-58.373 26.15c-18.87 0-29.064-12.553-29.064-54.32 0-35.924 10.194-49.557 29.064-49.557 18.87 0 29.064 13.633 29.064 49.557 0 41.767-10.193 54.32-29.063 54.32zM362.604 88.97c8.206-28.615.525-45.338-15.15-49.832-15.674-4.495-31.05 5.617-39.255 34.232-9.126 31.82-1.274 47.95 14.4 52.445 15.674 4.494 30.88-5.024 40.004-36.845zm-46.586 16.022c-18.87 0-29.064-12.552-29.064-54.318 0-35.924 10.194-49.558 29.064-49.558 18.87 0 29.064 13.634 29.064 49.558 0 41.766-10.194 54.318-29.064 54.318zm129.27-7.123c16.065-22.94 16.47-40.753 1.682-51.108-14.788-10.355-33.196-7.214-49.26 15.727-17.863 25.51-14.185 43.407.603 53.762 14.788 10.355 29.113 7.13 46.976-18.38zm-68.67-48.733c0-31.184 10.194-43.02 29.064-43.02 18.87 0 29.064 11.836 29.064 43.02 0 36.256-10.194 47.15-29.064 47.15-18.87 0-29.064-10.894-29.064-47.15zM0 110.168h18.382V65.255h26.79l30.107 44.913h14.757l-31.09-46.9c20.267-2.36 35.42-12.12 35.42-31.32C94.366 9.76 76.852 0 48.91 0H0v110.168zm9.11-54.61v-25.26h32.233c16.367 0 28.725 3.013 28.725 12.673 0 9.662-13.528 12.587-28.39 12.587H9.11z"/><path d="M74.84 127.078h65.414V152.5h24.15V127.08h15.592v-23.716h-15.593v-83.67h-38.98l-50.582 83.48v23.906zm35.316-12.914l37.11-53.236h.36v53.236h-37.47z"/></g></svg>
