<?xml version="1.0" encoding="UTF-8" standalone="no"?>
<svg width="457px" height="152px" viewBox="0 0 457 152" version="1.1" xmlns="http://www.w3.org/2000/svg" xmlns:xlink="http://www.w3.org/1999/xlink" xmlns:sketch="http://www.bohemiancoding.com/sketch/ns">
    <!-- Generator: Sketch 3.5.1 (25234) - http://www.bohemiancoding.com/sketch -->
    <title>Group 2</title>
    <desc>Created with Sketch.</desc>
    <defs></defs>
    <g id="Page-1" stroke="none" stroke-width="1" fill="none" fill-rule="evenodd" sketch:type="MSPage">
        <g id="1024" sketch:type="MSArtboardGroup" transform="translate(-284.000000, -437.000000)" fill="#000000">
            <g id="Group-2" sketch:type="MSLayerGroup" transform="translate(284.000000, 436.000000)">
                <g id="Group" transform="translate(177.637874, 0.000000)" sketch:type="MSShapeGroup">
                    <path d="M88.0242729,80.8980381 C88.0242729,45.2021687 72.9111623,28.4651013 52.3626348,28.4651013 C31.8141072,28.4651013 16.7009967,45.2021687 16.7009967,80.8980381 C16.7009967,120.59303 31.8141072,136.589519 52.3626348,136.589519 C72.9111623,136.589519 88.0242729,120.59303 88.0242729,80.8980381 Z M29.6790733,109.538526 C10.8090645,109.538526 0.614921804,96.9868649 0.614921804,55.2201314 C0.614921804,19.2964124 10.8090645,5.6627118 29.6790733,5.6627118 C48.5490821,5.6627118 58.7432248,19.2964124 58.7432248,55.2201314 C58.7432248,96.9868649 48.5490821,109.538526 29.6790733,109.538526 L29.6790733,109.538526 Z M158.389187,130.563138 C174.695295,130.563138 186.688175,117.222922 186.688175,84.1194233 C186.688175,54.3509787 174.695295,40.3931603 158.389187,40.3931603 C142.083078,40.3931603 130.090199,54.3509787 130.090199,84.1194233 C130.090199,117.222922 142.083078,130.563138 158.389187,130.563138 L158.389187,130.563138 Z M137.380336,104.993971 C118.510327,104.993971 108.316185,92.4423104 108.316185,50.6755769 C108.316185,14.7518579 118.510327,1.11815734 137.380336,1.11815734 C156.250345,1.11815734 166.444488,14.7518579 166.444488,50.6755769 C166.444488,92.4423104 156.250345,104.993971 137.380336,104.993971 L137.380336,104.993971 Z M278.394454,83.3344234 C278.394454,55.3283472 268.509637,40.504296 250.456754,40.504296 C232.403871,40.504296 219.126266,53.6357757 219.126266,81.6418519 C219.126266,112.785538 232.403871,125.335979 250.456754,125.335979 C268.509637,125.335979 278.394454,114.47811 278.394454,83.3344234 Z M203.943542,51.7110081 C203.943542,20.5272243 214.137685,8.69241477 233.007693,8.69241477 C251.877702,8.69241477 262.071845,20.5272243 262.071845,51.7110081 C262.071845,87.9668532 251.877702,98.8623922 233.007693,98.8623922 C214.137685,98.8623922 203.943542,87.9668532 203.943542,51.7110081 Z" id="4000"></path>
                </g>
                <path d="M-1.685621e-16,123.801238 L20.3815928,123.801238 L20.3815928,78.8883257 L45.1727862,78.8883257 L75.2790215,123.801238 L90.03698,123.801238 L58.9468808,76.9013274 C79.2144771,74.5405937 94.3659812,64.7828943 94.3659812,45.5822599 C94.3659812,23.3913628 76.8532038,13.6336634 48.911469,13.6336634 L-1.685621e-16,13.6336634 L-1.685621e-16,123.801238 Z M9.10963455,69.1908416 L9.10963455,43.9306931 L41.3425581,43.9306931 C57.7095349,43.9306931 70.0682724,46.9441845 70.0682724,56.6050834 C70.0682724,66.2659823 56.5404651,69.1908416 41.6765781,69.1908416 L9.10963455,69.1908416 Z" id="R" sketch:type="MSShapeGroup"></path>
                <path d="M69.8405316,127.078124 L135.253748,127.078124 L135.253748,152.501441 L159.403394,152.501441 L159.403394,127.078124 L174.99608,127.078124 L174.99608,103.362344 L159.403394,103.362344 L159.403394,19.6930693 L120.421681,19.6930693 L69.8405316,103.172617 L69.8405316,127.078124 Z M105.155548,114.164002 L142.266214,60.9283143 L142.626512,60.9283143 L142.626512,114.164002 L105.155548,114.164002 Z" id="4" sketch:type="MSShapeGroup"></path>
            </g>
        </g>
    </g>
</svg>