<?xml version="1.0" encoding="UTF-8" standalone="no"?>
<svg width="369px" height="158px" viewBox="0 0 369 158" version="1.1" xmlns="http://www.w3.org/2000/svg" xmlns:xlink="http://www.w3.org/1999/xlink" xmlns:sketch="http://www.bohemiancoding.com/sketch/ns">
    <!-- Generator: Sketch 3.5.2 (25235) - http://www.bohemiancoding.com/sketch -->
    <title>R4000 Copy 2</title>
    <desc>Created with Sketch.</desc>
    <defs></defs>
    <g id="Page-1" stroke="none" stroke-width="1" fill="none" fill-rule="evenodd" sketch:type="MSPage">
        <g id="R4000-Copy-2" sketch:type="MSLayerGroup" fill="#000000">
            <path d="M352.605891,44.0500557 C350.454944,25.3521542 342.005021,18 328.076374,18 C311.795444,18 303,28.0451192 303,54.513211 C303,77.4341896 307.879557,88.4133373 317.097366,92.5239381 C319.466509,105.964927 327.763568,112.71459 338.970216,114.289582 C354.493242,116.471201 364.270187,108.576955 367.934005,82.507538 C370.957388,60.9950473 365.517543,47.7684093 352.605891,44.0500557 Z M352.605891,44.0500557 C352.969145,47.2077732 353.152747,50.6890798 353.152747,54.513211 C353.152747,85.2863539 344.357303,94.5342414 328.076374,94.5342414 C323.922085,94.5342414 320.255161,93.932129 317.097366,92.5239381 C316.184861,87.3469751 316.151763,81.1773537 317.170535,73.9284141 C320.465237,50.4853936 333.426991,41.0979835 348.950017,43.2796026 C350.228337,43.4592587 351.4472,43.7163709 352.605891,44.0500557 Z" id="Path" sketch:type="MSShapeGroup"></path>
            <path d="M291.520634,32.5711955 C286.903666,12.8198502 277.125162,5.29382045 262.66546,6.0516213 C243.821312,7.03920125 234.354673,21.1877375 236.234775,57.0622243 C237.779925,86.5454452 243.647775,101.184304 253.610828,106.884308 C257.455388,114.597674 263.776228,118.779441 271.591721,120.017294 C287.697074,122.568131 301.629171,111.268255 306.807699,78.5723155 C310.871471,52.9146685 304.031373,37.7202132 291.520634,32.5711955 Z M291.520634,32.5711955 C292.920583,38.5601655 293.845974,45.6731477 294.283415,54.020024 C296.469317,95.7295177 286.946048,108.797497 268.1019,109.785077 C262.578129,110.074566 257.742364,109.248019 253.610828,106.884308 C249.532918,98.7027737 248.24101,86.5479246 250.906538,69.7184413 C255.563349,40.3164956 269.59206,28.4066209 285.697413,30.9574582 C287.748409,31.282304 289.694903,31.8197836 291.520634,32.5711955 Z" id="Path" sketch:type="MSShapeGroup"></path>
            <path d="M174.853718,123.833408 C162.034585,116.810907 155.25312,98.5169558 155.25312,60.7882164 C155.25312,16.7233958 167.757478,0 190.903844,0 C205.493927,0 215.855635,6.64468362 221.522539,22.593359 C240.366556,27.9858909 252.350705,47.952998 249.851556,83.692501 C246.693323,128.857339 228.224952,145.855657 204.844902,144.220765 C191.908452,143.31616 181.255027,136.971727 174.853718,123.833408 Z M174.853718,123.833408 C179.441732,126.346786 184.803141,127.416349 190.903844,127.416349 C214.050211,127.416349 226.554569,112.020207 226.554569,60.7882164 C226.554569,44.4992181 224.845868,31.9463835 221.522539,22.593359 C218.952069,21.8577758 216.253956,21.3933829 213.447551,21.1971399 C190.067501,19.5622475 171.540208,37.4031935 168.700155,78.0178422 C167.289408,98.1924588 169.685939,113.226837 174.853718,123.833408 Z" id="Path" sketch:type="MSShapeGroup"></path>
            <path d="M74.8405316,132.078124 L140.253748,132.078124 L140.253748,157.501441 L164.403394,157.501441 L164.403394,132.078124 L179.99608,132.078124 L179.99608,108.362344 L164.403394,108.362344 L164.403394,24.6930693 L125.421681,24.6930693 L74.8405316,108.172617 L74.8405316,132.078124 Z M95.8405316,108.693069 L147.12857,65.6930693 L147.626512,65.6930693 L147.626512,108.693069 L95.8405316,108.693069 Z" id="4" sketch:type="MSShapeGroup"></path>
            <path d="M-1.685621e-16,113.167574 L21.3815928,113.167574 L21.3815928,68.2546623 L45.1727862,68.2546623 L75.2790215,113.167574 L90.03698,113.167574 L58.9468808,66.2676641 C79.2144771,63.9069303 94.3659812,54.1492309 94.3659812,34.9485965 C94.3659812,12.7576994 76.8532038,3 48.911469,3 L-1.685621e-16,3 L-1.685621e-16,113.167574 Z M11.1096346,48.5571782 L11.1096346,23.2970297 L36.9612524,23.2970297 C50.0879807,23.2970297 60,26.3105211 60,35.97142 C60,45.6323189 49.1503573,48.5571782 37.2291449,48.5571782 L11.1096346,48.5571782 Z" id="R" sketch:type="MSShapeGroup"></path>
        </g>
    </g>
</svg>