<?xml version="1.0" encoding="iso-8859-1"?>
<!-- Generator: Adobe Illustrator 17.1.0, SVG Export Plug-In . SVG Version: 6.00 Build 0)  -->
<!DOCTYPE svg PUBLIC "-//W3C//DTD SVG 1.0//EN" "http://www.w3.org/TR/2001/REC-SVG-20010904/DTD/svg10.dtd">
<svg version="1.0" xmlns="http://www.w3.org/2000/svg" xmlns:xlink="http://www.w3.org/1999/xlink" x="0px" y="0px" width="110px"
	 height="110px" viewBox="0 0 110 110" style="enable-background:new 0 0 110 110;" xml:space="preserve">
<g id="Artboard">
</g>
<g id="Multicolor">
	<circle style="fill:#E04F5F;" cx="55" cy="55" r="55"/>
	<g>
		<path style="fill:#B6BCBD;" d="M87,40v36c0,1.21-1.79,3-4,3H27c-2.21,0-4-1.79-4-3V40c0-3.21,1.79-5,4-5h56
			C85.21,35,87,36.79,87,40z"/>
		<path style="fill:#F0F1F1;" d="M87,39v9H23v-9c0-2.21,1.79-4,4-4h56C85.21,35,87,36.79,87,39z"/>
		<rect x="49" y="48" style="fill:#E2E4E5;" width="12" height="31"/>
		<g>
			<circle style="fill:#FFFFFF;" cx="70" cy="42" r="3"/>
			<path style="fill:#B6BCBD;" d="M70,40c1.104,0,2,0.896,2,2s-0.896,2-2,2s-2-0.896-2-2S68.896,40,70,40 M70,38
				c-2.206,0-4,1.794-4,4s1.794,4,4,4s4-1.794,4-4S72.206,38,70,38L70,38z"/>
		</g>
		<g>
			<circle style="fill:#FFFFFF;" cx="79" cy="42" r="3"/>
			<path style="fill:#B6BCBD;" d="M79,40c1.104,0,2,0.896,2,2s-0.896,2-2,2s-2-0.896-2-2S77.896,40,79,40 M79,38
				c-2.206,0-4,1.794-4,4s1.794,4,4,4s4-1.794,4-4S81.206,38,79,38L79,38z"/>
		</g>
		<path style="fill:#CFD3D4;" d="M41,27h-1c-0.552,0-1,0.448-1,1v7h2V27z"/>
		<path style="fill:#CFD3D4;" d="M71,28c0-0.552-0.448-1-1-1h-1v8h2V28z"/>
		<rect x="41" y="27" style="fill:#3E3E3F;" width="28" height="4"/>
		<circle style="fill:#5B5C5F;" cx="55" cy="58" r="2"/>
		<circle style="fill:#5B5C5F;" cx="55" cy="66" r="2"/>
		<path style="fill:#FFFFFF;" d="M27.08,35c-2.21,0-4,1.79-4,4v9H54l13-13H27.08z"/>
		<rect x="47" y="40" style="fill:#17B198;" width="16" height="4"/>
		<polygon style="fill:#4AC3AF;" points="62,40 47,40 47,44 58,44 		"/>
		<path style="fill:#CFD3D4;" d="M23,48v28c0,0.573,0.41,1.272,1.067,1.853L53.92,48H23z"/>
		<rect x="29" y="40" style="fill:#FA5655;" width="2" height="4"/>
		<rect x="33" y="40" style="fill:#F3B607;" width="2" height="4"/>
		<rect x="37" y="40" style="fill:#4AC3AF;" width="2" height="4"/>
		<circle style="fill:#3E3E3F;" cx="36" cy="62" r="8.8"/>
		<path style="fill:#F0F1F1;" d="M74,51c-6.075,0-11,4.925-11,11c0,4.044,2.189,7.569,5.44,9.48l15.04-15.04
			C81.569,53.189,78.044,51,74,51z"/>
		<circle style="fill:#3E3E3F;" cx="74" cy="62" r="8.8"/>
		<circle style="fill:#818284;" cx="74" cy="62" r="3.3"/>
		<path style="fill:#F0F1F1;" d="M74,51c-6.075,0-11,4.925-11,11s4.925,11,11,11s11-4.925,11-11S80.075,51,74,51z M74,53.2
			c4.521,0,8.242,3.411,8.739,7.8H65.261C65.758,56.611,69.479,53.2,74,53.2z M74,70.8c-4.521,0-8.242-3.411-8.739-7.8h17.479
			C82.242,67.389,78.521,70.8,74,70.8z"/>
		<polygon style="fill:#F0F1F1;" points="53.92,48 49,48 49,52.92 		"/>
		<circle style="fill:#818284;" cx="36" cy="62" r="3.3"/>
		<path style="fill:#F0F1F1;" d="M36,51c-6.075,0-11,4.925-11,11s4.925,11,11,11s11-4.925,11-11S42.075,51,36,51z M36,53.2
			c4.521,0,8.242,3.411,8.739,7.8H27.261C27.758,56.611,31.479,53.2,36,53.2z M36,70.8c-4.521,0-8.242-3.411-8.739-7.8h17.479
			C44.242,67.389,40.521,70.8,36,70.8z"/>
	</g>
</g>
</svg>
