<svg version="1" xmlns="http://www.w3.org/2000/svg" width="110" height="110" viewBox="0 0 110 110"><circle cx="55" cy="55" r="55" fill="#E04F5F"/><path d="M87 75c0 2.21-1.79 4-4 4H27c-2.21 0-4-1.79-4-4V35c0-2.21 1.79-4 4-4h56c2.21 0 4 1.79 4 4v40z" fill="#F0F1F1"/><path d="M27 31c-2.21 0-4 1.79-4 4v40c0 1.347.67 2.53 1.69 3.256L71.946 31H27z" fill="#FFF"/><circle cx="47" cy="55" r="20" fill="#3E3E3F"/><circle cx="29" cy="37" r="2" fill="#818284"/><path d="M83 73c0 1.1-.9 2-2 2h-4c-1.1 0-2-.9-2-2V57c0-1.1.9-2 2-2h4c1.1 0 2 .9 2 2v16z" fill="#B6BCBD"/><circle cx="73" cy="41" r="6" fill="#3E3E3F"/><path d="M76.765 38.015c-.255.49-.86.68-1.35.426l-1.773-.922c-.49-.255-.68-.86-.426-1.35l1.384-2.66c.255-.49.86-.68 1.35-.426l1.773.923c.49.255.68.86.426 1.35l-1.385 2.66z" fill="#CFD3D4"/><path fill="#5B5C5F" d="M75.416 38.44l-1.774-.922-10.86 20.876-6.095 4.445 1.178 1.615 6.464-4.714-.02-.023.03.015"/><path d="M53.248 66.61l-.024-.032c-.644-.883-.45-2.122.433-2.766l2.44-1.78 2.357 3.232-2.44 1.78c-.883.643-2.122.45-2.766-.434z" fill="#818284"/><circle cx="79" cy="59" r="2" fill="#F0F1F1"/><circle cx="79" cy="65" r="2" fill="#F0F1F1"/><circle cx="79" cy="71" r="2" fill="#F0F1F1"/><circle cx="73" cy="41" r="2" fill="#FFF"/><path d="M47 35c-11.046 0-20 8.954-20 20 0 4.584 1.56 8.795 4.153 12.168l28.015-28.015C55.795 36.56 51.584 35 47 35z" fill="#5B5C5F"/><circle cx="47" cy="55" r="8" fill="#DF2C2C"/><circle cx="47" cy="55" r="1.562" fill="#FFF"/><path d="M47 47c-4.418 0-8 3.582-8 8 0 1.26.3 2.445.817 3.505l10.688-10.688C49.445 47.3 48.26 47 47 47z" fill="#FA5655"/></svg>
