<svg width="500" height="401" viewBox="0 0 500 401" xmlns="http://www.w3.org/2000/svg"><title>Shuffle</title><path d="M160.027602,221.79629 C172.545995,239.2506 186.026405,258.006879 202.753113,275.827525 C164.622551,319.703803 109.055945,359.627491 0,359.627491 L0,279.780115 C86.4637772,279.780115 121.487067,251.108367 152.461362,211.29935 C154.953675,214.730339 157.467299,218.221201 160.027602,221.79629 Z M245.379175,160.576315 C253.192008,171.464963 260.530936,181.680808 268.130664,191.05844 C294.474493,161.99397 327.554469,141.252771 390.816192,137.215955 L371.383051,186.427974 C370.572238,188.467693 371.226774,190.783433 372.978294,192.101639 C373.84695,192.747043 374.878987,193.085981 375.911024,193.085981 C376.954223,193.085981 377.999452,192.747043 378.868108,192.078299 L498.099307,100.402584 C499.293709,99.4913067 499.994926,98.0594445 499.994926,96.548429 C499.994926,95.0404578 499.298783,93.606566 498.099307,92.6973183 L378.868108,1.02769181 C377.128766,-0.306751017 374.717636,-0.318928442 372.978294,1.00435175 C371.225759,2.3235728 370.566149,4.63931314 371.383051,6.67801705 L391.357073,57.2508634 C305.745715,61.7352002 255.26217,91.2725595 219.680749,126.33847 C229.207554,138.058227 237.584608,149.709993 245.379175,160.576315 Z M378.868108,208.468099 C377.98626,207.796311 376.94306,207.460417 375.904935,207.460417 C374.872898,207.460417 373.841876,207.796311 372.978294,208.444758 C371.225759,209.76398 370.566149,212.07972 371.383051,214.119439 L390.811118,263.327399 C300.268918,257.563417 271.525121,217.573768 235.92036,167.920317 C195.339091,111.333853 144.838294,40.9158625 0,40.9158625 L0,120.763239 C103.839948,120.763239 133.495022,162.099508 171.03498,214.454318 C210.21483,269.092395 258.532823,336.337151 391.356058,343.301623 L371.382036,393.871425 C370.571223,395.911144 371.225759,398.226884 372.977279,399.546105 C374.716621,400.87243 377.13384,400.860252 378.867094,399.522765 L498.098292,307.84705 C499.298783,306.940846 500,305.506955 500,303.995939 C500,302.484924 499.303857,301.057121 498.098292,300.144828 L378.868108,208.468099 Z" fill="#000" fill-rule="evenodd"/></svg>
