<svg xmlns="http://www.w3.org/2000/svg" style="display: none;">

	 <symbol id="icon-play" viewBox="0 0 512 512">
		<path d="m394 256c0-4-2-8-6-10l-252-146c-2-1-4-2-7-2c-6 0-11 5-11 12c0 0 0 1 0 1l0 0l0 293l0 0c1 5 5 10 11 10c2 0 4-1 6-2l0 0l253-146l0 0c4-2 6-6 6-10z"/>
	 </symbol>

	 <symbol id="icon-next" viewBox="0 0 512 512">
		<path d="m454 396l0-280c0 0 0 0 0 0c0 0 0 0 0 0l0-2l0 0c0-6-6-11-13-11c0 0 0 0 0 0l-23 0c-1 0-1-1-1-1c-8 0-13 6-13 13c0 1 0 2 0 2l0 119l-171-99c-2-1-4-2-6-2c-5 0-9 3-9 8l0 0l0 78l-146-84c-1-1-3-2-6-2c-5 0-8 3-9 8l0 0l0 226c0 4 4 8 9 8c3 0 5-1 7-2l145-84l0 78c0 4 4 8 9 8c2 0 5-1 6-2l171-99l0 120l0 0c0 0 0 0 0 1c0 7 6 13 13 13l25 0l0-1c7 0 13-5 13-13c0 0-1 0-1 0z"/>
	 </symbol>

	 <symbol id="icon-pause" viewBox="0 0 512 512">
		<path d="m208 102c-1 0-1 0-2 0l0 0l-53 0c-6 0-11 5-11 11c0 0 0 0 0 0l0 0l0 286l0 0c0 0 0 0 0 0c0 6 5 11 11 11l55 0c6 0 11-5 11-11c0 0 0 0 0 0l0 0l0-286c0 0 0 0 0 0c0-6-5-11-11-11z m162 297l0-286c0 0 0 0 0 0c0-6-5-11-11-11c-1 0-1 0-2 0l0 0l-53 0c-6 0-11 5-11 11c0 0 0 0 0 0l0 0l0 286l0 0c0 0 0 0 0 0c0 6 5 11 11 11l55 0c6 0 11-5 11-11c0 0 0 0 0 0z"/>
	 </symbol>

	 <symbol id="icon-previous" viewBox="0 0 512 512">
		<path d="m446 135c-3 0-5 1-7 2l-145 84l0-78c0-4-4-8-9-8c-2 0-5 1-6 2l-171 99l0-120l0 0c0 0 0 0 0-1c0-7-6-12-13-13l-25 0l0 1c-7 0-13 5-13 13c0 0 1 0 1 0l0 280c0 0 0 0 0 0c0 0 0 0 0 0l0 2l0 0c0 6 6 11 13 11c0 0 0 0 0 0l23 0c1 0 1 1 1 1c8 0 13-6 13-13c0-1 0-2 0-2l0-119l171 99c2 1 4 2 6 2c5 0 9-3 9-8l0 0l0-78l146 84c1 1 3 2 6 2c5 0 8-3 9-8l0 0l0-226c0-4-4-8-9-8z"/>
	 </symbol>

	 <symbol id="icon-arrows-expand" viewBox="0 0 512 512">
		<path d="m26 344l-26 158c0 2 1 5 3 7c0 0 0 0 0 0c2 2 5 3 7 3l158-27c3 0 6-3 7-6c1-3 0-7-3-9l-30-31l82-82c4-4 4-9 0-13l-57-57c-3-3-9-3-12 0l-83 83l-31-31c-2-2-5-3-9-2c-3 1-5 4-6 7z m460-176l26-158c0-2-1-5-3-7c0 0 0 0 0 0c-2-2-5-3-7-3l-158 27c-3 0-6 3-7 6c-1 3 0 7 3 9l30 31l-82 82c-4 4-4 9 0 13l57 57c3 3 9 3 12 0l83-83l31 31c2 2 5 3 9 2c3-1 5-4 6-7z"/>
	 </symbol>

	 <symbol id="icon-arrows-compress" viewBox="0 0 512 512">
		<path d="m201 453l26-158c0-3-1-6-3-8c0 0 0 0 0 0c-2-2-5-3-8-2l-157 26c-3 1-6 3-7 7c-1 3 0 6 2 9l31 30l-82 83c-4 3-4 9 0 13l56 56c4 4 10 4 13 0l83-82l30 31c3 2 6 3 9 2c4-1 6-4 7-7z m110-394l-26 158c0 3 1 6 3 8c0 0 0 0 0 0c2 2 5 3 8 2l157-26c3-1 6-3 7-7c1-3 0-6-2-9l-31-30l82-83c4-3 4-9 0-13l-56-56c-4-4-10-4-13 0l-83 82l-30-31c-3-2-6-3-9-2c-4 1-6 4-7 7z"/>
	 </symbol>

	 <symbol id="icon-pencil" viewBox="0 0 512 512">
		<path d="m455 150l-93-93c-5-5-14-5-20 0l-253 254l1 0l-1 0l-35 130l0 0c-2 4 0 10 3 14c5 4 11 5 16 2l0 0l128-34l0 0l0 0l254-254c5-5 5-14 0-19z m-359 265l21-76l56 56z"/>
	 </symbol>

	 <symbol id="icon-shuffle" viewBox="0 0 512 512">
		<path d="m480 349l-101-62c-8-5-14-1-14 8l0 23c-1 0-2 0-3 0l-37 0c-34 0-61-28-61-62c0-75-61-136-137-136l-99 0l0 75l99 0c34 0 62 27 62 61c0 75 61 136 136 136l37 0c1 0 2 0 3 0l0 23c0 9 6 13 14 8l101-62c0 0 4-2 4-6c0-4-4-6-4-6z m0-198l-101-62c-8-5-14-1-14 8l0 23c-1 0-2 0-3 0l-37 0c-23 0-45 6-64 16c18 17 33 39 42 63c7-3 15-5 22-5l37 0c1 0 2 0 3 0l0 23c0 9 6 13 14 8l101-62c0 0 4-2 4-6c0-4-4-6-4-6z m-352 166l-99 0l0 75l99 0c23 0 45-6 64-16c-19-17-33-39-42-63c-7 3-15 4-22 4z"/>
	 </symbol>
</svg>
