<?xml version="1.0" encoding="iso-8859-1"?>
<!-- Generator: Adobe Illustrator 17.1.0, SVG Export Plug-In . SVG Version: 6.00 Build 0)  -->
<!DOCTYPE svg PUBLIC "-//W3C//DTD SVG 1.0//EN" "http://www.w3.org/TR/2001/REC-SVG-20010904/DTD/svg10.dtd">
<svg version="1.0" xmlns="http://www.w3.org/2000/svg" xmlns:xlink="http://www.w3.org/1999/xlink" x="0px" y="0px" width="110px"
	 height="110px" viewBox="0 0 110 110" style="enable-background:new 0 0 110 110;" xml:space="preserve">
<g id="Artboard">
</g>
<g id="Multicolor">
	<circle style="fill:#25B7D3;" cx="55" cy="55" r="55"/>
	<g>
		<path style="fill:#F0F1F1;" d="M69,75c0,2.209-1.791,4-4,4h-6c-2.209,0-4-1.791-4-4V35c0-2.209,1.791-4,4-4h6c2.209,0,4,1.791,4,4
			V75z"/>
		<path style="fill:#FFFFFF;" d="M69,45.412V35c0-2.209-1.791-4-4-4h-6c-2.209,0-4,1.791-4,4v24.412L69,45.412z"/>
		<path style="fill:#F0F1F1;" d="M53,79c0,2.209-1.791,4-4,4h-6c-2.209,0-4-1.791-4-4V31c0-2.209,1.791-4,4-4h6c2.209,0,4,1.791,4,4
			V79z"/>
		<path style="fill:#FFFFFF;" d="M53,61.412V31c0-2.209-1.791-4-4-4h-6c-2.209,0-4,1.791-4,4v44.412L53,61.412z"/>
		<path style="fill:#F0F1F1;" d="M37,83c0,2.209-1.791,4-4,4h-6c-2.209,0-4-1.791-4-4V27c0-2.209,1.791-4,4-4h6c2.209,0,4,1.791,4,4
			V83z"/>
		<path style="fill:#FFFFFF;" d="M37,27c0-2.209-1.791-4-4-4h-6c-2.209,0-4,1.791-4,4v56c0,2.209,1.791,4,4,4h0.412L37,77.412V27z"
			/>
		<circle style="fill:#5B5C5F;" cx="30" cy="31" r="2.5"/>
		<circle style="fill:#5B5C5F;" cx="30" cy="79" r="2.5"/>
		<circle style="fill:#5B5C5F;" cx="46" cy="35" r="2.5"/>
		<circle style="fill:#5B5C5F;" cx="46" cy="75" r="2.5"/>
		<circle style="fill:#5B5C5F;" cx="62" cy="39" r="2.5"/>
		<circle style="fill:#5B5C5F;" cx="62" cy="71" r="2.5"/>
		<path style="fill:#F0F1F1;" d="M85,71c0,2.209-1.791,4-4,4h-6c-2.209,0-4-1.791-4-4V39c0-2.209,1.791-4,4-4h6c2.209,0,4,1.791,4,4
			V71z"/>
		<circle style="fill:#5B5C5F;" cx="78" cy="43" r="2.5"/>
		<circle style="fill:#5B5C5F;" cx="78" cy="67" r="2.5"/>
		<path style="fill:#9C6144;" d="M85.019,81.514L51.822,55.479c-0.33,0.861-0.792,1.688-1.39,2.452s-1.292,1.409-2.05,1.935
			L81.58,85.899c1.211,0.95,2.963,0.738,3.913-0.473C86.442,84.215,86.23,82.463,85.019,81.514z"/>
		<circle style="fill:#DF2C2C;" cx="43" cy="52.103" r="9.444"/>
		<path style="fill:#FFFFFF;" d="M79.412,35H75c-2.209,0-4,1.791-4,4v4.412L79.412,35z"/>
		<path style="fill:#AF7653;" d="M85.019,81.514L51.822,55.479c-0.325,0.847-0.78,1.66-1.364,2.413l35.053,27.504
			C86.436,84.187,86.221,82.456,85.019,81.514z"/>
		<path style="fill:#FA5655;" d="M48.829,44.671c-4.104-3.219-10.041-2.501-13.26,1.604c-3.03,3.863-2.57,9.347,0.917,12.663
			l13.344-13.344C49.519,45.27,49.192,44.957,48.829,44.671z"/>
	</g>
</g>
</svg>
