<?xml version="1.0" standalone="no"?>
<!DOCTYPE svg PUBLIC "-//W3C//DTD SVG 20010904//EN"
 "http://www.w3.org/TR/2001/REC-SVG-20010904/DTD/svg10.dtd">
<svg version="1.0" xmlns="http://www.w3.org/2000/svg"
 width="1024.000000pt" height="1024.000000pt" viewBox="0 0 1024.000000 1024.000000"
 preserveAspectRatio="xMidYMid meet">
<metadata>
Created by potrace 1.11, written by Peter Selinger 2001-2013
</metadata>
<g transform="translate(0.000000,1024.000000) scale(0.100000,-0.100000)"
fill="#000000" stroke="none">
<path d="M0 5120 l0 -5120 5120 0 5120 0 0 5120 0 5120 -5120 0 -5120 0 0
-5120z m4160 2497 c307 -47 542 -126 710 -240 68 -46 187 -165 232 -231 123
-179 179 -417 157 -669 -41 -489 -414 -819 -1047 -926 -63 -11 -115 -21 -118
-23 -3 -3 703 -1076 720 -1095 0 -1 334 549 741 1222 l740 1224 653 1 652 0 0
-1395 0 -1395 260 0 260 0 0 -395 0 -395 -260 0 -260 0 0 -420 0 -420 -400 0
-400 0 0 420 0 420 -1092 2 -1093 3 -5 350 -5 350 -488 728 -488 727 -599 0
-600 0 0 -745 0 -745 -155 0 -155 0 0 1836 0 1835 968 -4 c822 -3 983 -6 1072
-20z"/>
<path d="M2420 6210 l0 -421 693 4 c598 3 706 6 795 21 369 62 544 190 544
397 0 180 -133 301 -395 364 -191 46 -231 48 -949 52 l-688 4 0 -421z"/>
<path d="M7018 5433 c-27 -31 -1128 -1571 -1128 -1577 0 -3 259 -6 575 -6
l575 0 0 800 c0 440 -2 800 -3 800 -2 0 -11 -8 -19 -17z"/>
</g>
</svg>
