<?xml version="1.0" standalone="no"?>
<!DOCTYPE svg PUBLIC "-//W3C//DTD SVG 20010904//EN"
 "http://www.w3.org/TR/2001/REC-SVG-20010904/DTD/svg10.dtd">
<svg version="1.0" xmlns="http://www.w3.org/2000/svg"
 width="1024.000000pt" height="1024.000000pt" viewBox="0 0 1024.000000 1024.000000"
 preserveAspectRatio="xMidYMid meet">
<metadata>
Created by potrace 1.11, written by Peter Selinger 2001-2013
</metadata>
<g transform="translate(0.000000,1024.000000) scale(0.100000,-0.100000)"
fill="#000000" stroke="none">
<path d="M0 5120 l0 -5120 5120 0 5120 0 0 5120 0 5120 -5120 0 -5120 0 0
-5120z m4085 2501 c479 -55 808 -203 991 -444 63 -83 128 -223 156 -333 19
-75 22 -116 22 -264 0 -151 -3 -187 -22 -259 -113 -413 -462 -672 -1038 -769
-58 -10 -104 -22 -104 -27 1 -6 163 -255 362 -554 296 -447 362 -542 372 -529
6 8 341 560 745 1226 l734 1212 648 0 649 0 0 -1395 0 -1395 260 0 260 0 0
-390 0 -390 -260 0 -260 0 0 -425 0 -425 -400 0 -400 0 0 425 0 425 -1090 0
-1090 0 0 339 0 339 -371 553 c-204 305 -428 638 -497 742 l-125 187 -599 0
-598 0 0 -750 0 -750 -155 0 -155 0 0 1836 0 1836 933 -5 c611 -3 966 -8 1032
-16z"/>
<path d="M2420 6206 l0 -426 553 0 c303 0 623 5 710 10 413 24 650 114 742
281 26 47 30 64 30 134 -1 216 -157 335 -525 402 -82 15 -188 17 -802 20
l-708 4 0 -425z"/>
<path d="M6460 4664 c-311 -433 -569 -793 -573 -800 -7 -12 88 -14 573 -14
l580 0 0 800 c0 440 -3 800 -8 800 -4 0 -261 -354 -572 -786z"/>
</g>
</svg>
