<svg xmlns="http://www.w3.org/2000/svg" style="display: none;">

	<symbol id="icon-shuffle" viewBox="0 0 500 401"><path d="M160.027602,221.79629 C172.545995,239.2506 186.026405,258.006879 202.753113,275.827525 C164.622551,319.703803 109.055945,359.627491 0,359.627491 L0,279.780115 C86.4637772,279.780115 121.487067,251.108367 152.461362,211.29935 C154.953675,214.730339 157.467299,218.221201 160.027602,221.79629 Z M245.379175,160.576315 C253.192008,171.464963 260.530936,181.680808 268.130664,191.05844 C294.474493,161.99397 327.554469,141.252771 390.816192,137.215955 L371.383051,186.427974 C370.572238,188.467693 371.226774,190.783433 372.978294,192.101639 C373.84695,192.747043 374.878987,193.085981 375.911024,193.085981 C376.954223,193.085981 377.999452,192.747043 378.868108,192.078299 L498.099307,100.402584 C499.293709,99.4913067 499.994926,98.0594445 499.994926,96.548429 C499.994926,95.0404578 499.298783,93.606566 498.099307,92.6973183 L378.868108,1.02769181 C377.128766,-0.306751017 374.717636,-0.318928442 372.978294,1.00435175 C371.225759,2.3235728 370.566149,4.63931314 371.383051,6.67801705 L391.357073,57.2508634 C305.745715,61.7352002 255.26217,91.2725595 219.680749,126.33847 C229.207554,138.058227 237.584608,149.709993 245.379175,160.576315 Z M378.868108,208.468099 C377.98626,207.796311 376.94306,207.460417 375.904935,207.460417 C374.872898,207.460417 373.841876,207.796311 372.978294,208.444758 C371.225759,209.76398 370.566149,212.07972 371.383051,214.119439 L390.811118,263.327399 C300.268918,257.563417 271.525121,217.573768 235.92036,167.920317 C195.339091,111.333853 144.838294,40.9158625 0,40.9158625 L0,120.763239 C103.839948,120.763239 133.495022,162.099508 171.03498,214.454318 C210.21483,269.092395 258.532823,336.337151 391.356058,343.301623 L371.382036,393.871425 C370.571223,395.911144 371.225759,398.226884 372.977279,399.546105 C374.716621,400.87243 377.13384,400.860252 378.867094,399.522765 L498.098292,307.84705 C499.298783,306.940846 500,305.506955 500,303.995939 C500,302.484924 499.303857,301.057121 498.098292,300.144828 L378.868108,208.468099 Z" fill="#000" fill-rule="evenodd"/></symbol>

	<symbol id="icon-shuffle-white" viewBox="0 0 500 401"><path d="M160.027602,221.79629 C172.545995,239.2506 186.026405,258.006879 202.753113,275.827525 C164.622551,319.703803 109.055945,359.627491 0,359.627491 L0,279.780115 C86.4637772,279.780115 121.487067,251.108367 152.461362,211.29935 C154.953675,214.730339 157.467299,218.221201 160.027602,221.79629 Z M245.379175,160.576315 C253.192008,171.464963 260.530936,181.680808 268.130664,191.05844 C294.474493,161.99397 327.554469,141.252771 390.816192,137.215955 L371.383051,186.427974 C370.572238,188.467693 371.226774,190.783433 372.978294,192.101639 C373.84695,192.747043 374.878987,193.085981 375.911024,193.085981 C376.954223,193.085981 377.999452,192.747043 378.868108,192.078299 L498.099307,100.402584 C499.293709,99.4913067 499.994926,98.0594445 499.994926,96.548429 C499.994926,95.0404578 499.298783,93.606566 498.099307,92.6973183 L378.868108,1.02769181 C377.128766,-0.306751017 374.717636,-0.318928442 372.978294,1.00435175 C371.225759,2.3235728 370.566149,4.63931314 371.383051,6.67801705 L391.357073,57.2508634 C305.745715,61.7352002 255.26217,91.2725595 219.680749,126.33847 C229.207554,138.058227 237.584608,149.709993 245.379175,160.576315 Z M378.868108,208.468099 C377.98626,207.796311 376.94306,207.460417 375.904935,207.460417 C374.872898,207.460417 373.841876,207.796311 372.978294,208.444758 C371.225759,209.76398 370.566149,212.07972 371.383051,214.119439 L390.811118,263.327399 C300.268918,257.563417 271.525121,217.573768 235.92036,167.920317 C195.339091,111.333853 144.838294,40.9158625 0,40.9158625 L0,120.763239 C103.839948,120.763239 133.495022,162.099508 171.03498,214.454318 C210.21483,269.092395 258.532823,336.337151 391.356058,343.301623 L371.382036,393.871425 C370.571223,395.911144 371.225759,398.226884 372.977279,399.546105 C374.716621,400.87243 377.13384,400.860252 378.867094,399.522765 L498.098292,307.84705 C499.298783,306.940846 500,305.506955 500,303.995939 C500,302.484924 499.303857,301.057121 498.098292,300.144828 L378.868108,208.468099 Z" fill="#fff" fill-rule="evenodd"/></symbol>

	 <symbol id="icon-play" viewBox="0 0 512 512">
		<path d="m394 256c0-4-2-8-6-10l-252-146c-2-1-4-2-7-2c-6 0-11 5-11 12c0 0 0 1 0 1l0 0l0 293l0 0c1 5 5 10 11 10c2 0 4-1 6-2l0 0l253-146l0 0c4-2 6-6 6-10z"/>
	 </symbol>

	 <symbol id="icon-next" viewBox="0 0 512 512">
		<path d="m454 396l0-280c0 0 0 0 0 0c0 0 0 0 0 0l0-2l0 0c0-6-6-11-13-11c0 0 0 0 0 0l-23 0c-1 0-1-1-1-1c-8 0-13 6-13 13c0 1 0 2 0 2l0 119l-171-99c-2-1-4-2-6-2c-5 0-9 3-9 8l0 0l0 78l-146-84c-1-1-3-2-6-2c-5 0-8 3-9 8l0 0l0 226c0 4 4 8 9 8c3 0 5-1 7-2l145-84l0 78c0 4 4 8 9 8c2 0 5-1 6-2l171-99l0 120l0 0c0 0 0 0 0 1c0 7 6 13 13 13l25 0l0-1c7 0 13-5 13-13c0 0-1 0-1 0z"/>
	 </symbol>

	 <symbol id="icon-pause" viewBox="0 0 512 512">
		<path d="m208 102c-1 0-1 0-2 0l0 0l-53 0c-6 0-11 5-11 11c0 0 0 0 0 0l0 0l0 286l0 0c0 0 0 0 0 0c0 6 5 11 11 11l55 0c6 0 11-5 11-11c0 0 0 0 0 0l0 0l0-286c0 0 0 0 0 0c0-6-5-11-11-11z m162 297l0-286c0 0 0 0 0 0c0-6-5-11-11-11c-1 0-1 0-2 0l0 0l-53 0c-6 0-11 5-11 11c0 0 0 0 0 0l0 0l0 286l0 0c0 0 0 0 0 0c0 6 5 11 11 11l55 0c6 0 11-5 11-11c0 0 0 0 0 0z"/>
	 </symbol>

	 <symbol id="icon-previous" viewBox="0 0 512 512">
		<path d="m446 135c-3 0-5 1-7 2l-145 84l0-78c0-4-4-8-9-8c-2 0-5 1-6 2l-171 99l0-120l0 0c0 0 0 0 0-1c0-7-6-12-13-13l-25 0l0 1c-7 0-13 5-13 13c0 0 1 0 1 0l0 280c0 0 0 0 0 0c0 0 0 0 0 0l0 2l0 0c0 6 6 11 13 11c0 0 0 0 0 0l23 0c1 0 1 1 1 1c8 0 13-6 13-13c0-1 0-2 0-2l0-119l171 99c2 1 4 2 6 2c5 0 9-3 9-8l0 0l0-78l146 84c1 1 3 2 6 2c5 0 8-3 9-8l0 0l0-226c0-4-4-8-9-8z"/>
	 </symbol>

	 <symbol id="icon-arrows-expand" viewBox="0 0 512 512">
		<path d="m26 344l-26 158c0 2 1 5 3 7c0 0 0 0 0 0c2 2 5 3 7 3l158-27c3 0 6-3 7-6c1-3 0-7-3-9l-30-31l82-82c4-4 4-9 0-13l-57-57c-3-3-9-3-12 0l-83 83l-31-31c-2-2-5-3-9-2c-3 1-5 4-6 7z m460-176l26-158c0-2-1-5-3-7c0 0 0 0 0 0c-2-2-5-3-7-3l-158 27c-3 0-6 3-7 6c-1 3 0 7 3 9l30 31l-82 82c-4 4-4 9 0 13l57 57c3 3 9 3 12 0l83-83l31 31c2 2 5 3 9 2c3-1 5-4 6-7z"/>
	 </symbol>

	 <symbol id="icon-arrows-compress" viewBox="0 0 512 512">
		<path d="m201 453l26-158c0-3-1-6-3-8c0 0 0 0 0 0c-2-2-5-3-8-2l-157 26c-3 1-6 3-7 7c-1 3 0 6 2 9l31 30l-82 83c-4 3-4 9 0 13l56 56c4 4 10 4 13 0l83-82l30 31c3 2 6 3 9 2c4-1 6-4 7-7z m110-394l-26 158c0 3 1 6 3 8c0 0 0 0 0 0c2 2 5 3 8 2l157-26c3-1 6-3 7-7c1-3 0-6-2-9l-31-30l82-83c4-3 4-9 0-13l-56-56c-4-4-10-4-13 0l-83 82l-30-31c-3-2-6-3-9-2c-4 1-6 4-7 7z"/>
	 </symbol>

	 <symbol id="icon-pencil" viewBox="0 0 512 512">
		<path d="m455 150l-93-93c-5-5-14-5-20 0l-253 254l1 0l-1 0l-35 130l0 0c-2 4 0 10 3 14c5 4 11 5 16 2l0 0l128-34l0 0l0 0l254-254c5-5 5-14 0-19z m-359 265l21-76l56 56z"/>
	 </symbol>
</svg>
