<?xml version="1.0" encoding="iso-8859-1"?>
<!-- Generator: Adobe Illustrator 17.1.0, SVG Export Plug-In . SVG Version: 6.00 Build 0)  -->
<!DOCTYPE svg PUBLIC "-//W3C//DTD SVG 1.0//EN" "http://www.w3.org/TR/2001/REC-SVG-20010904/DTD/svg10.dtd">
<svg version="1.0" xmlns="http://www.w3.org/2000/svg" xmlns:xlink="http://www.w3.org/1999/xlink" x="0px" y="0px" width="110px"
	 height="110px" viewBox="0 0 110 110" style="enable-background:new 0 0 110 110;" xml:space="preserve">
<g id="Artboard">
</g>
<g id="Multicolor">
	<circle style="fill:#32BEA6;" cx="55" cy="55" r="55"/>
	<g>
		<path style="fill:#EDBC7C;" d="M83.879,79.879C83.316,79.316,82.553,79,81.757,79H28.243c-0.795,0-1.559,0.316-2.122,0.879L23,83
			v4h64v-4L83.879,79.879z"/>
		<path style="fill:#F8E1C2;" d="M23,83l3.121-3.121C26.684,79.316,27.447,79,28.243,79h53.515c0.796,0,1.559,0.316,2.121,0.879
			L87,83H23z"/>
		<circle style="fill:#FACB1B;" cx="31" cy="31" r="8"/>
		<path style="fill:#107665;" d="M76,35c-3.59,0-6,2.81-6,5.94v4.08c0,1.09-0.89,1.98-1.98,1.98h-0.04C66.89,47,66,46.11,66,45.02
			V31c0-4.42-3.58-8-8-8s-8,3.58-8,8v22.02c0,1.09-0.89,1.98-1.98,1.98h-0.04C46.89,55,46,54.11,46,53.02v-4.08
			c0-3.248-2.54-5.94-6-5.94c-3.427,0-6,2.658-6,5.94v10.21C34,71.17,50,66.83,50,79v4h16V71c0-12.17,16-7.83,16-19.85V40.94
			C82,37.66,79.28,35,76,35z"/>
		<path style="fill:#0D9681;" d="M50,31v22.02c0,1.09-0.89,1.98-1.98,1.98h-0.04C46.89,55,46,54.11,46,53.02v-4.08
			c0-3.248-2.54-5.94-6-5.94c-3.427,0-6,2.658-6,5.94v10.21C34,71.17,50,66.83,50,79v4h8V23C53.58,23,50,26.58,50,31z"/>
	</g>
</g>
</svg>
