<?xml version="1.0" encoding="iso-8859-1"?>
<!-- Generator: Adobe Illustrator 17.1.0, SVG Export Plug-In . SVG Version: 6.00 Build 0)  -->
<!DOCTYPE svg PUBLIC "-//W3C//DTD SVG 1.0//EN" "http://www.w3.org/TR/2001/REC-SVG-20010904/DTD/svg10.dtd">
<svg version="1.0" xmlns="http://www.w3.org/2000/svg" xmlns:xlink="http://www.w3.org/1999/xlink" x="0px" y="0px" width="110px"
	 height="110px" viewBox="0 0 110 110" style="enable-background:new 0 0 110 110;" xml:space="preserve">
<g id="Artboard">
</g>
<g id="Multicolor">
	<circle style="fill:#FABC3D;" cx="55" cy="55" r="55"/>
	<g>
		<path style="fill:#5B5C5F;" d="M75,55V23H35v32l-8,16h56L75,55z M39,55V27h32v28H39z"/>
		<g>
			<rect x="27" y="71" style="fill:#3E3E3F;" width="56" height="16"/>
		</g>
		<g>
			<rect x="39" y="27" style="fill:#3E3E3F;" width="32" height="28"/>
		</g>
		<g>
			<polygon style="fill:#FA5655;" points="45.05,35.858 50.025,30.883 59.975,30.883 64.95,35.858 			"/>
		</g>
		<g>
			<polygon style="fill:#5B5C5F;" points="27,71 27,87 36.024,87 52.024,71 			"/>
		</g>
		<g>
			<polygon style="fill:#DF2C2C;" points="64.95,35.858 59.975,43.321 50.025,43.321 45.05,35.858 			"/>
		</g>
		<g>
			<polygon style="fill:#F79392;" points="50.025,30.883 55,35.858 59.975,30.883 			"/>
		</g>
		<g>
			<polygon style="fill:#FA5655;" points="59.975,43.321 55,35.858 50.025,43.321 			"/>
		</g>
		<g>
			<path style="fill:#FFFFFF;" d="M73.081,27.184c-2.863,0.403-4.495,2.035-4.897,4.897c-0.017,0.119-0.181,0.119-0.198,0
				c-0.402-2.862-2.035-4.495-4.897-4.897c-0.119-0.017-0.119-0.181,0-0.198c2.863-0.403,4.495-2.035,4.897-4.897
				c0.017-0.119,0.181-0.119,0.198,0c0.402,2.862,2.035,4.495,4.897,4.897C73.201,27.003,73.201,27.167,73.081,27.184z"/>
		</g>
		<g>
			<path style="fill:#FFFFFF;" d="M41.081,43.184c-2.863,0.403-4.495,2.035-4.897,4.897c-0.017,0.119-0.181,0.119-0.198,0
				c-0.402-2.862-2.035-4.495-4.897-4.897c-0.119-0.017-0.119-0.181,0-0.198c2.863-0.403,4.495-2.035,4.897-4.897
				c0.017-0.119,0.181-0.119,0.198,0c0.402,2.862,2.035,4.495,4.897,4.897C41.201,43.003,41.201,43.167,41.081,43.184z"/>
		</g>
		<g>
			<polygon style="fill:#9E9FA0;" points="27,71 52.024,71 68.024,55 35,55 			"/>
		</g>
		<g>
			<path style="fill:#FFFFFF;" d="M71,55c0,0-3-4-16-4s-16,4-16,4l-6,14h44L71,55z"/>
		</g>
		<g>
			<path style="fill:#FACB1B;" d="M60,45.933v-2.613H50v2.613c-4.124,1.899-7,6.057-7,10.887c0,1.782,0.382,3.499,1.136,5.102
				l2.715-1.276C46.286,59.446,46,58.159,46,56.821c0-4.962,4.037-9,9-9s9,4.038,9,9c0,1.361-0.296,2.667-0.878,3.883L65.827,62
				C66.605,60.376,67,58.634,67,56.821C67,51.991,64.124,47.833,60,45.933z"/>
		</g>
		<g>
			<path style="fill:#FBE158;" d="M50,43.321v2.613c-4.124,1.899-7,6.057-7,10.887c0,0.21,0.023,0.416,0.034,0.624l3.415-3.415
				c0.89-2.72,3.041-4.87,5.76-5.76l4.948-4.948H50z"/>
		</g>
	</g>
</g>
</svg>
