<?xml version="1.0" encoding="iso-8859-1"?>
<!-- Generator: Adobe Illustrator 17.1.0, SVG Export Plug-In . SVG Version: 6.00 Build 0)  -->
<!DOCTYPE svg PUBLIC "-//W3C//DTD SVG 1.0//EN" "http://www.w3.org/TR/2001/REC-SVG-20010904/DTD/svg10.dtd">
<svg version="1.0" xmlns="http://www.w3.org/2000/svg" xmlns:xlink="http://www.w3.org/1999/xlink" x="0px" y="0px" width="110px"
	 height="110px" viewBox="0 0 110 110" style="enable-background:new 0 0 110 110;" xml:space="preserve">
<g id="Artboard">
</g>
<g id="Multicolor">
	<circle style="fill:#E04F5F;" cx="55" cy="55" r="55"/>
	<g>
		<path style="fill:#F0F1F1;" d="M87,75c0,2.209-1.791,4-4,4H27c-2.209,0-4-1.791-4-4V35c0-2.209,1.791-4,4-4h56
			c2.209,0,4,1.791,4,4V75z"/>
		<path style="fill:#FFFFFF;" d="M27,31c-2.209,0-4,1.791-4,4v40c0,1.347,0.67,2.531,1.69,3.256L71.946,31H27z"/>
		<circle style="fill:#3E3E3F;" cx="47" cy="55" r="20"/>
		<circle style="fill:#818284;" cx="29" cy="37" r="2"/>
		<path style="fill:#B6BCBD;" d="M83,73c0,1.1-0.9,2-2,2h-4c-1.1,0-2-0.9-2-2V57c0-1.1,0.9-2,2-2h4c1.1,0,2,0.9,2,2V73z"/>
		<circle style="fill:#3E3E3F;" cx="73" cy="41" r="6"/>
		<path style="fill:#CFD3D4;" d="M76.765,38.015c-0.255,0.49-0.859,0.681-1.349,0.426l-1.774-0.923
			c-0.49-0.255-0.681-0.859-0.426-1.349l1.384-2.661c0.255-0.49,0.859-0.681,1.349-0.426l1.774,0.923
			c0.49,0.255,0.681,0.859,0.426,1.349L76.765,38.015z"/>
		<polygon style="fill:#5B5C5F;" points="75.416,38.44 73.642,37.518 62.782,58.394 56.687,62.839 57.865,64.455 64.329,59.741 
			64.311,59.717 64.34,59.732 		"/>
		<path style="fill:#818284;" d="M53.248,66.61l-0.024-0.032c-0.644-0.883-0.451-2.122,0.433-2.766l2.44-1.78l2.357,3.232
			l-2.44,1.78C55.131,67.687,53.892,67.493,53.248,66.61z"/>
		<circle style="fill:#F0F1F1;" cx="79" cy="59" r="2"/>
		<circle style="fill:#F0F1F1;" cx="79" cy="65" r="2"/>
		<circle style="fill:#F0F1F1;" cx="79" cy="71" r="2"/>
		<circle style="fill:#FFFFFF;" cx="73" cy="41" r="2"/>
		<path style="fill:#5B5C5F;" d="M47,35c-11.046,0-20,8.954-20,20c0,4.584,1.559,8.795,4.153,12.168l28.015-28.015
			C55.795,36.559,51.584,35,47,35z"/>
		<circle style="fill:#DF2C2C;" cx="47" cy="55" r="8"/>
		<circle style="fill:#FFFFFF;" cx="47" cy="55" r="1.562"/>
		<path style="fill:#FA5655;" d="M47,47c-4.418,0-8,3.582-8,8c0,1.259,0.299,2.445,0.817,3.505l10.688-10.688
			C49.445,47.299,48.259,47,47,47z"/>
	</g>
</g>
</svg>
