<svg xmlns="http://www.w3.org/2000/svg" style="display: none;">

	<symbol id="icon-star" viewBox="0 0 35 35">
		<path d="M16.9999996,27.25 L6.4198663,32.657798 L8.44049147,21.203899 L-0.119017421,13.092203 L11.7099344,11.4211001 L17.0000002,1 L22.2900692,11.4211027 L34.1190202,13.0922113 L25.5595078,21.2039012 L27.5801333,32.6577982 L16.9999996,27.25 Z M16.9999996,27.25" />
	</symbol>
	<symbol id="icon-star-yellow" viewBox="0 0 35 35">
		<path d="M16.9999996,26.25 L6.4198663,31.657798 L8.44049147,20.203899 L-0.119017421,12.092203 L11.7099344,10.4211001 L17.0000002,1.94289029e-15 L22.2900692,10.4211027 L34.1190202,12.0922113 L25.5595078,20.2039012 L27.5801333,31.6577982 L16.9999996,26.25 Z M16.9999996,26.25" />
	</symbol>

	 <symbol id="icon-play" viewBox="0 0 512 512">
		<path d="m394 256c0-4-2-8-6-10l-252-146c-2-1-4-2-7-2c-6 0-11 5-11 12c0 0 0 1 0 1l0 0l0 293l0 0c1 5 5 10 11 10c2 0 4-1 6-2l0 0l253-146l0 0c4-2 6-6 6-10z"/>
	 </symbol>

	 <symbol id="icon-next" viewBox="0 0 512 512">
		<path d="m454 396l0-280c0 0 0 0 0 0c0 0 0 0 0 0l0-2l0 0c0-6-6-11-13-11c0 0 0 0 0 0l-23 0c-1 0-1-1-1-1c-8 0-13 6-13 13c0 1 0 2 0 2l0 119l-171-99c-2-1-4-2-6-2c-5 0-9 3-9 8l0 0l0 78l-146-84c-1-1-3-2-6-2c-5 0-8 3-9 8l0 0l0 226c0 4 4 8 9 8c3 0 5-1 7-2l145-84l0 78c0 4 4 8 9 8c2 0 5-1 6-2l171-99l0 120l0 0c0 0 0 0 0 1c0 7 6 13 13 13l25 0l0-1c7 0 13-5 13-13c0 0-1 0-1 0z"/>
	 </symbol>

	 <symbol id="icon-pause" viewBox="0 0 512 512">
		<path d="m208 102c-1 0-1 0-2 0l0 0l-53 0c-6 0-11 5-11 11c0 0 0 0 0 0l0 0l0 286l0 0c0 0 0 0 0 0c0 6 5 11 11 11l55 0c6 0 11-5 11-11c0 0 0 0 0 0l0 0l0-286c0 0 0 0 0 0c0-6-5-11-11-11z m162 297l0-286c0 0 0 0 0 0c0-6-5-11-11-11c-1 0-1 0-2 0l0 0l-53 0c-6 0-11 5-11 11c0 0 0 0 0 0l0 0l0 286l0 0c0 0 0 0 0 0c0 6 5 11 11 11l55 0c6 0 11-5 11-11c0 0 0 0 0 0z"/>
	 </symbol>

	 <symbol id="icon-previous" viewBox="0 0 512 512">
		<path d="m446 135c-3 0-5 1-7 2l-145 84l0-78c0-4-4-8-9-8c-2 0-5 1-6 2l-171 99l0-120l0 0c0 0 0 0 0-1c0-7-6-12-13-13l-25 0l0 1c-7 0-13 5-13 13c0 0 1 0 1 0l0 280c0 0 0 0 0 0c0 0 0 0 0 0l0 2l0 0c0 6 6 11 13 11c0 0 0 0 0 0l23 0c1 0 1 1 1 1c8 0 13-6 13-13c0-1 0-2 0-2l0-119l171 99c2 1 4 2 6 2c5 0 9-3 9-8l0 0l0-78l146 84c1 1 3 2 6 2c5 0 8-3 9-8l0 0l0-226c0-4-4-8-9-8z"/>
	 </symbol>

	 <symbol id="icon-arrows-expand" viewBox="0 0 512 512">
		<path d="m26 344l-26 158c0 2 1 5 3 7c0 0 0 0 0 0c2 2 5 3 7 3l158-27c3 0 6-3 7-6c1-3 0-7-3-9l-30-31l82-82c4-4 4-9 0-13l-57-57c-3-3-9-3-12 0l-83 83l-31-31c-2-2-5-3-9-2c-3 1-5 4-6 7z m460-176l26-158c0-2-1-5-3-7c0 0 0 0 0 0c-2-2-5-3-7-3l-158 27c-3 0-6 3-7 6c-1 3 0 7 3 9l30 31l-82 82c-4 4-4 9 0 13l57 57c3 3 9 3 12 0l83-83l31 31c2 2 5 3 9 2c3-1 5-4 6-7z"/>
	 </symbol>

	 <symbol id="icon-arrows-compress" viewBox="0 0 512 512">
		<path d="m201 453l26-158c0-3-1-6-3-8c0 0 0 0 0 0c-2-2-5-3-8-2l-157 26c-3 1-6 3-7 7c-1 3 0 6 2 9l31 30l-82 83c-4 3-4 9 0 13l56 56c4 4 10 4 13 0l83-82l30 31c3 2 6 3 9 2c4-1 6-4 7-7z m110-394l-26 158c0 3 1 6 3 8c0 0 0 0 0 0c2 2 5 3 8 2l157-26c3-1 6-3 7-7c1-3 0-6-2-9l-31-30l82-83c4-3 4-9 0-13l-56-56c-4-4-10-4-13 0l-83 82l-30-31c-3-2-6-3-9-2c-4 1-6 4-7 7z"/>
	 </symbol>

	 <symbol id="icon-music" viewBox="0 0 512 512">
		<path d="m431 70l-262 0c-9 0-17 7-17 16l0 246c-6-1-12-2-18-2c-38 0-69 25-69 56c0 31 31 56 69 56c38 0 69-25 69-56l0-236l193 0l0 135c-6-1-12-2-18-2c-38 0-69 25-69 56c0 31 31 56 69 56c38 0 69-25 69-56l0-253c0-9-7-16-16-16z"/>
	 </symbol>

	 <symbol id="icon-pencil" viewBox="0 0 512 512">
		<path d="m455 150l-93-93c-5-5-14-5-20 0l-253 254l1 0l-1 0l-35 130l0 0c-2 4 0 10 3 14c5 4 11 5 16 2l0 0l128-34l0 0l0 0l254-254c5-5 5-14 0-19z m-359 265l21-76l56 56z"/>
	 </symbol>

	 <symbol id="icon-x" viewBox="0 0 512 512">
		<path d="m434 352l-96-96l96-96c4-4 4-10 0-14l-68-68c-4-4-10-4-14 0l-96 96l-96-96c-4-4-11-4-14 0l-68 68c-2 1-3 4-3 7c0 2 1 5 3 7l96 96l-96 96c-2 2-3 5-3 7c0 3 1 6 3 7l68 68c1 2 4 3 7 3c2 0 5-1 7-3l96-96l96 96c2 2 5 3 7 3c3 0 5-1 7-3l68-68c4-4 4-10 0-14z"/>
	 </symbol>

	 <symbol id="icon-wrench" viewBox="0 0 512 512">
		<path d="m442 120l-20 20l-19 19l-25 24c-13 1-26-4-36-13c-9-10-14-23-13-36l63-64c1-1 1-3 0-4c0-1 0-1-1-1l0 0c0 0 0 0 0 0c0 0 0 0 0 0c-14-6-29-10-45-10c-61 0-111 50-111 111c0 12 2 23 6 33l-116 116c-39 1-70 32-70 71c0 39 32 71 71 71c39 0 70-31 71-70l116-116c10 4 21 6 33 6c61 0 111-50 111-111c0-16-4-31-10-45c0 0 0 0 0 0c0 0 0-1 0-1l0 0c0 0-1 0-1 0c-1-1-3-1-4 0z m-286 266c0 16-14 29-30 29c-16 0-29-13-29-29c0-16 13-30 29-30c16 0 30 14 30 30z"/>
	 </symbol>

	 <symbol id="icon-widget" viewBox="0 0 512 512">
		<path d="m453 222l-52-5c-4-12-9-25-15-36l33-41c4-4 4-11 0-15l-32-32c-3-2-5-3-8-3c-3 0-5 1-7 3l-41 33c-12-6-24-11-36-15l-5-52c-1-6-6-10-11-10l-46 0c-5 0-10 4-11 10l-5 52c-12 4-24 9-36 15l-41-33c-2-2-4-3-7-3c-3 0-5 1-8 3l-32 32c-4 4-4 11 0 15l33 41c-6 11-11 24-15 36l-52 5c-6 1-10 6-10 11l0 46c0 5 4 10 10 11l52 5c4 12 9 24 15 36l-33 41c-4 4-4 11 0 15l32 32c3 2 5 3 8 3c3 0 5-1 7-3l41-33c12 6 24 11 36 15l5 52c1 6 6 10 11 10l46 0c5 0 10-4 11-10l5-52c12-4 24-9 36-15l41 33c2 2 4 3 7 3c3 0 5-1 8-3l32-32c4-4 4-11 0-15l-33-41c6-12 11-24 15-36l52-5c6-1 10-6 10-11l0-46c0-5-4-10-10-11z m-197 95c-34 0-61-27-61-61c0-34 27-61 61-61c34 0 61 27 61 61c0 34-27 61-61 61z"/>
	 </symbol>

	 <symbol id="icon-plus" viewBox="0 0 512 512">
		<path d="m432 203l-123 0l0-123c0-5-5-10-10-10l-86 0c-5 0-10 5-10 10l0 123l-123 0c-5 0-10 5-10 10l0 86c0 3 1 5 3 7c2 2 4 3 7 3l123 0l0 123c0 3 1 5 3 7c2 2 4 3 7 3l86 0c3 0 5-1 7-3c2-2 3-4 3-7l0-123l123 0c3 0 5-1 7-3c2-2 3-4 3-7l0-86c0-5-5-10-10-10z"/>
	 </symbol>

	 <symbol id="icon-camera" viewBox="0 0 512 512">
		<path d="m319 256c0 35-28 63-63 63c-35 0-63-28-63-63c0-35 28-63 63-63c35 0 63 28 63 63z m96-177l-318 0c-38 0-69 30-69 67l0 220c0 37 31 67 69 67l318 0c38 0 69-30 69-67l0-220c0-37-31-67-69-67z m-318 86c-11 0-19-8-19-19c0-10 8-19 19-19c10 0 19 9 19 19c0 11-9 19-19 19z m159 189c-56 0-101-46-101-102c0-55 45-101 101-101c56 0 101 46 101 101c0 56-45 102-101 102z"/>
	 </symbol>

	 <symbol id="icon-twitter" viewBox="0 0 512 512">
		<path d="m482 125c-10 17-24 32-43 46l0 8c1 73-35 168-121 222c-42 26-90 40-143 40c-43 0-84-10-122-29c-10-6-17-10-21-12c-2-2-4-5-4-7c0-4 4-8 8-8c2 0 6 1 11 1c5 0 8 1 11 1c33 0 63-9 91-26c-33-8-60-32-71-65c0-1 0-2 0-2c0-4 3-8 7-8c1 0 2 0 3 1c2 0 3 0 3 0c-29-18-47-49-47-83c0-5 4-8 9-8c2 0 5 1 9 2c4 2 6 4 7 4c-15-18-22-39-22-62c0-16 5-36 13-49c2-2 4-4 6-4c3 0 5 1 7 3c12 14 21 23 27 28c39 36 90 57 144 62c-1-3-1-7-1-12c0-53 44-97 98-97c26 0 49 9 68 28c15-4 32-10 51-20c1-1 2-1 4-1c4 0 7 3 7 7c0 8-11 27-19 36c2-1 11-4 18-6c3-2 5-2 6-2c4 0 8 4 8 8c0 1-1 3-2 4z"/>
	 </symbol>

	 <symbol id="icon-facebook" viewBox="0 0 512 512">
		<path d="m354 256l-63 0l0 228l-94 0l0-228l-47 0l0-78l47 0l0-48c0-64 26-102 102-102l63 0l0 79l-40 0c-29 0-31 11-31 31l0 40l71 0z"/>
	 </symbol>

	 <symbol id="icon-google-plus" viewBox="0 0 512 512">
		<path d="m268 394c0-7-2-15-4-21c-1-3-2-6-4-9c-3-3-5-6-6-9c-3-4-12-11-15-15c-3-3-14-11-17-13c-3-2-15-11-18-12c-3 0-7 0-13 0c-20 0-38 2-59 8c-20 7-36 16-45 33c-5 9-8 19-8 30c0 25 14 45 35 56c21 11 45 16 68 16c22 0 41-4 58-14c17-9 28-27 28-50z m-33-236c0-21-6-47-17-70c-11-23-32-40-56-40c-34 0-53 29-53 64c0 18 4 37 13 56c8 19 20 34 36 44c9 4 18 7 27 7c35 0 50-24 50-61z m-36-129l120 0l-37 21l-37 0c26 16 41 49 41 81c0 27-10 48-22 61c-6 6-12 12-18 18c-12 11-22 22-22 35c0 9 7 19 17 27c4 4 10 8 16 13c11 9 23 20 33 33c10 13 16 32 16 53c0 58-55 113-153 113c-21 0-43-4-66-13c-22-8-40-20-51-40c-5-10-8-21-8-33c0-22 13-50 37-67c23-17 55-25 82-29c13-2 27-4 41-4c-12-15-18-29-18-41c0-4 1-8 3-11c0-3 3-9 4-12c-8 1-14 1-20 1c-54 0-99-40-99-94c0-51 40-96 90-107c18-4 35-5 51-5z m215 70l70 0l0 35l-70 0l0 70l-35 0l0-70l-70 0l0-35l70 0l0-70l35 0z"/>
	 </symbol>

	 <symbol id="icon-at" viewBox="0 0 512 512">
		<path d="m418 385l-7 5c-17 13-34 24-50 31c-29 13-61 20-95 20c-49 0-91-14-126-44c-39-33-58-78-58-135c0-51 16-95 50-131c36-41 85-61 146-61c33 0 63 8 89 22c42 24 63 62 63 115c0 36-7 65-23 87c-15 22-31 33-46 33c-8 0-14-3-18-8c-3-5-5-10-5-16c0-4 1-8 2-13c1-5 3-13 5-23l35-126l-51 0l-9 37c-3-12-8-22-16-30c-11-12-25-17-44-17c-32 0-59 15-81 46c-22 30-33 63-33 98c0 31 8 54 22 71c15 17 32 25 54 25c21 0 39-7 55-22c8-8 16-20 22-34c0 2 0 4 0 6c0 2 0 3 0 4c0 11 4 22 13 32c9 10 22 15 38 15c32 0 60-16 85-47c24-32 37-70 37-114c0-56-20-101-59-135c-37-32-83-48-139-48c-70 0-126 24-171 71c-42 44-63 98-63 162c0 57 17 106 51 147c41 51 98 76 172 76c32 0 63-6 92-17c30-11 57-28 83-49c0 0 12-11 5-27c-7-16-21-9-25-6z m-132-104c-12 32-28 47-47 47c-11 0-19-4-25-13c-6-8-9-20-9-34c0-24 7-48 20-73c13-25 29-38 48-38c10 0 17 4 23 11c5 7 8 15 8 26c0 18-6 43-18 74z"/>
	 </symbol>

	 <symbol id="icon-shuffle" viewBox="0 0 512 512">
		<path d="m480 349l-101-62c-8-5-14-1-14 8l0 23c-1 0-2 0-3 0l-37 0c-34 0-61-28-61-62c0-75-61-136-137-136l-99 0l0 75l99 0c34 0 62 27 62 61c0 75 61 136 136 136l37 0c1 0 2 0 3 0l0 23c0 9 6 13 14 8l101-62c0 0 4-2 4-6c0-4-4-6-4-6z m0-198l-101-62c-8-5-14-1-14 8l0 23c-1 0-2 0-3 0l-37 0c-23 0-45 6-64 16c18 17 33 39 42 63c7-3 15-5 22-5l37 0c1 0 2 0 3 0l0 23c0 9 6 13 14 8l101-62c0 0 4-2 4-6c0-4-4-6-4-6z m-352 166l-99 0l0 75l99 0c23 0 45-6 64-16c-19-17-33-39-42-63c-7 3-15 4-22 4z"/>
	 </symbol>

	<symbol id="icon-burger" viewBox="0 0 512 512">
		<path d="M4,10h24c1.104,0,2-0.896,2-2s-0.896-2-2-2H4C2.896,6,2,6.896,2,8S2.896,10,4,10z M28,14H4c-1.104,0-2,0.896-2,2  s0.896,2,2,2h24c1.104,0,2-0.896,2-2S29.104,14,28,14z M28,22H4c-1.104,0-2,0.896-2,2s0.896,2,2,2h24c1.104,0,2-0.896,2-2  S29.104,22,28,22z"/>
	</symbol>

</svg>
